<mxfile host="app.diagrams.net" modified="2021-06-18T15:39:02.099Z" agent="5.0 (Windows NT 10.0; Win64; x64) AppleWebKit/537.36 (KHTML, like Gecko) Chrome/91.0.4472.101 Safari/537.36 Edg/91.0.864.48" etag="QjJYxmneAQXKrdSvCfst" version="14.8.0" type="github">
  <diagram id="TlySPKfoBPXfZZhP2Spg" name="Page-1">
    <mxGraphModel dx="487" dy="682" grid="1" gridSize="10" guides="1" tooltips="1" connect="1" arrows="1" fold="1" page="1" pageScale="1" pageWidth="850" pageHeight="1100" math="0" shadow="0">
      <root>
        <mxCell id="0" />
        <mxCell id="1" parent="0" />
        <mxCell id="dekPz9LR2Xum0HDTf_9A-2" value="Ticket&#xa;" style="swimlane;fontStyle=1;align=center;verticalAlign=top;childLayout=stackLayout;horizontal=1;startSize=26;horizontalStack=0;resizeParent=1;resizeParentMax=0;resizeLast=0;collapsible=1;marginBottom=0;" vertex="1" parent="1">
          <mxGeometry x="150" y="220" width="380" height="160" as="geometry" />
        </mxCell>
        <mxCell id="dekPz9LR2Xum0HDTf_9A-3" value="- price: double&#xa;- promoteStrategy: PromoteStrategy&#xa;- name: String" style="text;strokeColor=none;fillColor=none;align=left;verticalAlign=top;spacingLeft=4;spacingRight=4;overflow=hidden;rotatable=0;points=[[0,0.5],[1,0.5]];portConstraint=eastwest;" vertex="1" parent="dekPz9LR2Xum0HDTf_9A-2">
          <mxGeometry y="26" width="380" height="54" as="geometry" />
        </mxCell>
        <mxCell id="dekPz9LR2Xum0HDTf_9A-4" value="" style="line;strokeWidth=1;fillColor=none;align=left;verticalAlign=middle;spacingTop=-1;spacingLeft=3;spacingRight=3;rotatable=0;labelPosition=right;points=[];portConstraint=eastwest;" vertex="1" parent="dekPz9LR2Xum0HDTf_9A-2">
          <mxGeometry y="80" width="380" height="20" as="geometry" />
        </mxCell>
        <mxCell id="dekPz9LR2Xum0HDTf_9A-5" value="+ setPromoteStrategy(promoteStrategy: PromoteStrategy): void&#xa;+ setPrice(price: double): void &#xa;+ getPromotedPrice(): double" style="text;strokeColor=none;fillColor=none;align=left;verticalAlign=top;spacingLeft=4;spacingRight=4;overflow=hidden;rotatable=0;points=[[0,0.5],[1,0.5]];portConstraint=eastwest;" vertex="1" parent="dekPz9LR2Xum0HDTf_9A-2">
          <mxGeometry y="100" width="380" height="60" as="geometry" />
        </mxCell>
        <mxCell id="dekPz9LR2Xum0HDTf_9A-9" value="&lt;p style=&quot;margin: 0px ; margin-top: 4px ; text-align: center&quot;&gt;&lt;i&gt;&amp;lt;&amp;lt;Interface&amp;gt;&amp;gt;&lt;/i&gt;&lt;br&gt;&lt;b&gt;PromoteStrategy&lt;/b&gt;&lt;/p&gt;&lt;hr size=&quot;1&quot;&gt;&lt;p style=&quot;margin: 0px ; margin-left: 4px&quot;&gt;+ doDiscount(price: double): double&lt;br&gt;&lt;/p&gt;&lt;p style=&quot;margin: 0px ; margin-left: 4px&quot;&gt;&lt;br&gt;&lt;/p&gt;" style="verticalAlign=top;align=left;overflow=fill;fontSize=12;fontFamily=Helvetica;html=1;" vertex="1" parent="1">
          <mxGeometry x="280" y="500" width="200" height="70" as="geometry" />
        </mxCell>
        <object label="1" id="dekPz9LR2Xum0HDTf_9A-20">
          <mxCell style="endArrow=open;html=1;endSize=12;startArrow=diamondThin;startSize=14;startFill=0;edgeStyle=orthogonalEdgeStyle;align=left;verticalAlign=bottom;exitX=0.575;exitY=0.983;exitDx=0;exitDy=0;exitPerimeter=0;entryX=0.444;entryY=-0.054;entryDx=0;entryDy=0;entryPerimeter=0;" edge="1" parent="1" source="dekPz9LR2Xum0HDTf_9A-5" target="dekPz9LR2Xum0HDTf_9A-9">
            <mxGeometry x="-1" y="3" relative="1" as="geometry">
              <mxPoint x="350" y="410" as="sourcePoint" />
              <mxPoint x="740" y="480" as="targetPoint" />
            </mxGeometry>
          </mxCell>
        </object>
        <mxCell id="dekPz9LR2Xum0HDTf_9A-24" value="-strategy" style="edgeLabel;html=1;align=center;verticalAlign=middle;resizable=0;points=[];" vertex="1" connectable="0" parent="dekPz9LR2Xum0HDTf_9A-20">
          <mxGeometry x="-0.2245" y="-2" relative="1" as="geometry">
            <mxPoint x="3" y="1" as="offset" />
          </mxGeometry>
        </mxCell>
        <mxCell id="dekPz9LR2Xum0HDTf_9A-41" value="NoDiscountStategy " style="swimlane;fontStyle=1;childLayout=stackLayout;horizontal=1;startSize=26;fillColor=none;horizontalStack=0;resizeParent=1;resizeParentMax=0;resizeLast=0;collapsible=1;marginBottom=0;" vertex="1" parent="1">
          <mxGeometry x="10" y="518" width="210" height="52" as="geometry" />
        </mxCell>
        <mxCell id="dekPz9LR2Xum0HDTf_9A-44" value="+ DoDiscount(price: double): double" style="text;strokeColor=none;fillColor=none;align=left;verticalAlign=top;spacingLeft=4;spacingRight=4;overflow=hidden;rotatable=0;points=[[0,0.5],[1,0.5]];portConstraint=eastwest;" vertex="1" parent="dekPz9LR2Xum0HDTf_9A-41">
          <mxGeometry y="26" width="210" height="26" as="geometry" />
        </mxCell>
        <mxCell id="dekPz9LR2Xum0HDTf_9A-64" value="" style="endArrow=block;dashed=1;endFill=0;endSize=12;html=1;entryX=0;entryY=0.75;entryDx=0;entryDy=0;exitX=1;exitY=0.25;exitDx=0;exitDy=0;" edge="1" parent="1" source="dekPz9LR2Xum0HDTf_9A-41" target="dekPz9LR2Xum0HDTf_9A-9">
          <mxGeometry width="160" relative="1" as="geometry">
            <mxPoint x="150" y="529" as="sourcePoint" />
            <mxPoint x="260" y="560" as="targetPoint" />
          </mxGeometry>
        </mxCell>
        <mxCell id="dekPz9LR2Xum0HDTf_9A-65" value="" style="endArrow=block;dashed=1;endFill=0;endSize=12;html=1;entryX=0.25;entryY=1;entryDx=0;entryDy=0;exitX=0.5;exitY=0;exitDx=0;exitDy=0;" edge="1" parent="1" source="dekPz9LR2Xum0HDTf_9A-67" target="dekPz9LR2Xum0HDTf_9A-9">
          <mxGeometry width="160" relative="1" as="geometry">
            <mxPoint x="325" y="680" as="sourcePoint" />
            <mxPoint x="445" y="657" as="targetPoint" />
          </mxGeometry>
        </mxCell>
        <mxCell id="dekPz9LR2Xum0HDTf_9A-66" value="" style="endArrow=block;dashed=1;endFill=0;endSize=12;html=1;entryX=1;entryY=0.75;entryDx=0;entryDy=0;exitX=0;exitY=0.5;exitDx=0;exitDy=0;" edge="1" parent="1" source="dekPz9LR2Xum0HDTf_9A-70" target="dekPz9LR2Xum0HDTf_9A-9">
          <mxGeometry width="160" relative="1" as="geometry">
            <mxPoint x="630" y="555" as="sourcePoint" />
            <mxPoint x="340" y="580" as="targetPoint" />
          </mxGeometry>
        </mxCell>
        <mxCell id="dekPz9LR2Xum0HDTf_9A-67" value="QuarterDiscountStategy " style="swimlane;fontStyle=1;childLayout=stackLayout;horizontal=1;startSize=26;fillColor=none;horizontalStack=0;resizeParent=1;resizeParentMax=0;resizeLast=0;collapsible=1;marginBottom=0;" vertex="1" parent="1">
          <mxGeometry x="250" y="680" width="210" height="52" as="geometry" />
        </mxCell>
        <mxCell id="dekPz9LR2Xum0HDTf_9A-68" value="+ DoDiscount(price: double): double" style="text;strokeColor=none;fillColor=none;align=left;verticalAlign=top;spacingLeft=4;spacingRight=4;overflow=hidden;rotatable=0;points=[[0,0.5],[1,0.5]];portConstraint=eastwest;" vertex="1" parent="dekPz9LR2Xum0HDTf_9A-67">
          <mxGeometry y="26" width="210" height="26" as="geometry" />
        </mxCell>
        <mxCell id="dekPz9LR2Xum0HDTf_9A-69" value="HalfDiscountStategy " style="swimlane;fontStyle=1;childLayout=stackLayout;horizontal=1;startSize=26;fillColor=none;horizontalStack=0;resizeParent=1;resizeParentMax=0;resizeLast=0;collapsible=1;marginBottom=0;" vertex="1" parent="1">
          <mxGeometry x="600" y="509" width="210" height="52" as="geometry" />
        </mxCell>
        <mxCell id="dekPz9LR2Xum0HDTf_9A-70" value="+ DoDiscount(price: double): double" style="text;strokeColor=none;fillColor=none;align=left;verticalAlign=top;spacingLeft=4;spacingRight=4;overflow=hidden;rotatable=0;points=[[0,0.5],[1,0.5]];portConstraint=eastwest;" vertex="1" parent="dekPz9LR2Xum0HDTf_9A-69">
          <mxGeometry y="26" width="210" height="26" as="geometry" />
        </mxCell>
      </root>
    </mxGraphModel>
  </diagram>
</mxfile>
